<?xml version="1.0" encoding="utf-8"?>
<!-- Generator: Adobe Illustrator 22.1.0, SVG Export Plug-In . SVG Version: 6.00 Build 0)  -->
<svg version="1.1" id="Layer_1" xmlns="http://www.w3.org/2000/svg" xmlns:xlink="http://www.w3.org/1999/xlink" x="0px" y="0px"
	 viewBox="0 0 300 300" style="enable-background:new 0 0 300 300;" xml:space="preserve">
<style type="text/css">
	.st0{fill:#D1D3D4;}
	.st1{fill:#BCBEC0;}
	.st2{fill:#FFFFFF;}
	.st3{fill:#00B1B3;}
	.st4{fill:#5FC8D7;}
	.st5{fill:#EF4871;}
	.st6{fill:#F27581;}
	.st7{fill:#007A86;}
	.st8{fill:#333132;}
	.st9{fill:#F1F2F2;}
	.st10{fill:#007660;}
	.st11{fill:#00AD7C;}
	.st12{fill:#A13046;}
	.st13{fill:#60C3AC;}
	.st14{fill:#B57AB4;}
	.st15{fill:#85439A;}
	.st16{fill:#939598;}
	.st17{fill:#70346E;}
</style>
<g>
	<rect x="122" y="219.8" class="st0" width="28" height="28.6"/>
	<rect x="150" y="219.8" class="st1" width="28" height="28.6"/>
	<path class="st4" d="M150,53.6h-7.9l-0.9-6.8c0,0-35.6,5.4-50.5,33.1c-9.9,18.5-13.1,29.3-14.2,36.8c4.4,0.7,9.4,6.7,9.3,9.3
		c-0.1,2.2-2.7,8.5-9.4,8.7c1.3,8.9,4.6,20.6,10.4,28.1c8,10.5,23.5,24.2,27.4,35.9c4,11.7,3.5,21.3,3.5,21.3l19.5-1.9l-23-62.5
		c0,0,22.6-27.1,31-70.1c-1.4-7.8-1.8-10.3-1.8-10.3l6.5-3.1V53.6z"/>
	<path class="st3" d="M150,53.6h7.9l0.9-6.8c0,0,35.6,5.4,50.5,33.1c9.7,18.1,13,28.9,14.1,36.4c-3.8,1.1-8.7,6.4-8.6,9.1
		c0.1,2.4,3.2,10.1,8.6,10.2c-1.4,8.8-4.7,20-10.2,27.3c-8,10.5-23.5,24.2-27.4,35.9c-4,11.7-3.5,21.3-3.5,21.3l-19.5-1.9l23-62.5
		c0,0-22.6-27.1-31-70.1c1.4-7.8,1.8-10.3,1.8-10.3l-6.5-3.1V53.6z"/>
	<path class="st0" d="M150,85.6l-0.1,132.7h-12.6l-23-62.5c0,0,25.8-39.4,27.8-56.9c2-17.5,2.4-14.4,2.4-14.4L150,85.6z"/>
	<path class="st1" d="M150,85.6l-0.1,132.7h12.8l23-62.5c0,0-25.8-39.4-27.8-56.9c-2-17.5-2.4-14.4-2.4-14.4L150,85.6z"/>
	<circle class="st2" cx="150" cy="165.7" r="11.3"/>
	<g>
		<g>
			<g>
				<path class="st8" d="M221.4,143.7c-1.5,0-2.9,1-3.4,2.4c-3.9,11.1-10.5,21.3-19.3,29.4c-0.8,0.7-1.4,1.3-2.1,1.9
					c-10.7,9.7-17.1,23.1-18,37.4h-57c-0.9-14.2-7.4-27.7-18.1-37.5l-0.5-0.4c-0.5-0.5-1-0.9-1.4-1.2l-0.1-0.1
					c-8.8-8.1-15.4-18.2-19.4-29.3c-0.5-1.4-1.8-2.4-3.4-2.4h0c-2.4,0-4.2,2.4-3.4,4.7c4.3,12.2,11.6,23.3,21.3,32.3l0.2,0.2
					c0.5,0.4,0.9,0.8,1.4,1.2l0.4,0.4c10,9.2,15.8,22.2,15.8,35.7v3.5h71v-3.5c0-13.6,5.8-26.6,15.8-35.7c0.6-0.5,1.2-1.1,2-1.8
					c9.8-9,17.1-20.2,21.4-32.5C225.5,146,223.8,143.7,221.4,143.7L221.4,143.7z"/>
				<g>
					<g>
						<rect x="174.5" y="218.3" class="st8" width="7.1" height="30.2"/>
						<rect x="118.5" y="218.3" class="st8" width="7.1" height="30.2"/>
					</g>
					<path class="st8" d="M184.2,221.8h-68.3c-2,0-3.5-1.6-3.5-3.5v0c0-2,1.6-3.5,3.5-3.5h68.3c2,0,3.5,1.6,3.5,3.5v0
						C187.7,220.2,186.1,221.8,184.2,221.8z"/>
					<path class="st8" d="M184.2,236.9h-68.3c-2,0-3.5-1.6-3.5-3.5v0c0-2,1.6-3.5,3.5-3.5h68.3c2,0,3.5,1.6,3.5,3.5v0
						C187.7,235.3,186.1,236.9,184.2,236.9z"/>
					<path class="st8" d="M184.2,252h-68.3c-2,0-3.5-1.6-3.5-3.5l0,0c0-2,1.6-3.5,3.5-3.5h68.3c2,0,3.5,1.6,3.5,3.5l0,0
						C187.7,250.4,186.1,252,184.2,252z"/>
					<path class="st8" d="M163.2,267.1h-26.4c-2,0-3.5-1.6-3.5-3.5l0,0c0-2,1.6-3.5,3.5-3.5h26.4c2,0,3.5,1.6,3.5,3.5l0,0
						C166.8,265.5,165.2,267.1,163.2,267.1z"/>
				</g>
			</g>
			<g>
				<path class="st8" d="M245.4,32.9h-17.6c-1.8,0-3.3,1.5-3.3,3.3v5.5h-62.4v-5.5c0-1.8-1.5-3.3-3.3-3.3h-17.6
					c-1.8,0-3.3,1.5-3.3,3.3v5.5H75.5v-5.5c0-1.8-1.5-3.3-3.3-3.3H54.6c-1.8,0-3.3,1.5-3.3,3.3v17.6c0,1.8,1.5,3.3,3.3,3.3h17.6
					c1.8,0,3.3-1.5,3.3-3.3v-5.5h49.8C97.9,58.1,77.7,83.5,75.2,114h-8c-1.8,0-3.3,1.5-3.3,3.3v17.6c0,1.8,1.5,3.3,3.3,3.3h17.6
					c1.8,0,3.3-1.5,3.3-3.3v-17.6c0-1.8-1.5-3.3-3.3-3.3h-2.9c2.9-31.3,26.1-56.6,56-62.1v2c0,1.8,1.5,3.3,3.3,3.3h17.6
					c1.8,0,3.3-1.5,3.3-3.3v-2c29.9,5.5,53.1,30.8,56,62.1h-2.9c-1.8,0-3.3,1.5-3.3,3.3v17.6c0,1.8,1.5,3.3,3.3,3.3h17.6
					c1.8,0,3.3-1.5,3.3-3.3v-17.6c0-1.8-1.5-3.3-3.3-3.3h-8c-2.6-30.4-22.8-55.8-50.1-65.6h49.8v5.5c0,1.8,1.5,3.3,3.3,3.3h17.6
					c1.8,0,3.3-1.5,3.3-3.3V36.3C248.8,34.4,247.3,32.9,245.4,32.9z M68.8,48.4v2.1H57.9v-2.1v-6.7v-2.1h10.9v2.1V48.4z M70.5,120.6
					h10.9v10.9H70.5V120.6z M229.5,131.6h-10.9v-10.9h10.9V131.6z M155.5,50.5h-10.9v-2.1v-4.1v-2.6v-2.1h10.9v2.1v2.6v4.1V50.5z
					 M231.2,48.4v-6.7v-2.1h10.9v2.1v6.7v2.1h-10.9V48.4z"/>
				<path class="st8" d="M188.4,152.7c-0.1-0.2-12.5-16-19.2-30.4c-7.1-15.5-10.1-30.6-10.9-36.1c1.3-1.8,2.1-4,2.1-6.3
					c0-5.8-4.7-10.5-10.6-10.5c-2.8,0-5.5,1.1-7.5,3.1c-2,2-3.1,4.6-3.1,7.5c0,2.4,0.8,4.6,2.1,6.3c-0.8,5.5-3.7,20.6-10.8,36.1
					c-6.6,14.5-19,30.3-19.1,30.5c-0.6,0.8-0.9,1.9-0.6,2.9l22.5,61.3l33.1,0l22.4-61.3C189.2,154.6,189,153.6,188.4,152.7z
					 M146,79.9C146,79.9,146.1,79.9,146,79.9c0-0.3,0-0.5,0.1-0.8c0-0.1,0-0.1,0.1-0.2c0-0.2,0.1-0.4,0.2-0.6c0-0.1,0.1-0.1,0.1-0.2
					c0.1-0.2,0.2-0.3,0.3-0.5c0.1-0.2,0.2-0.3,0.4-0.5c0,0,0.1-0.1,0.1-0.1c0,0,0,0,0,0c0.2-0.2,0.4-0.3,0.6-0.5
					c0.1-0.1,0.3-0.2,0.4-0.2c0.1,0,0.2-0.1,0.3-0.1c0.2-0.1,0.3-0.1,0.5-0.1c0.1,0,0.2-0.1,0.3-0.1c0.2,0,0.5-0.1,0.7-0.1
					c0,0,0,0,0.1,0c0,0,0,0,0,0s0,0,0,0c0.2,0,0.4,0,0.6,0.1c1.5,0.2,2.7,1.3,3.1,2.7c0,0.1,0.1,0.2,0.1,0.3c0,0.1,0,0.2,0,0.3
					c0,0.2,0.1,0.3,0.1,0.5c0,0,0,0,0,0c0,0,0,0,0,0c0,0,0,0,0,0.1c0,0.2,0,0.4-0.1,0.7c0,0.1-0.1,0.2-0.1,0.4c0,0.1,0,0.2-0.1,0.2
					c0,0,0,0,0,0.1c-0.1,0.2-0.1,0.3-0.2,0.5c0,0,0,0.1-0.1,0.1v0c-0.7,1.1-1.9,1.9-3.3,1.9c-1.4,0-2.7-0.8-3.3-1.9v0
					c0,0,0-0.1-0.1-0.1c-0.1-0.1-0.2-0.3-0.2-0.5c0,0,0,0,0-0.1c0-0.1,0-0.2-0.1-0.2c0-0.1-0.1-0.2-0.1-0.4
					C146.1,80.4,146,80.2,146,79.9C146,79.9,146,79.9,146,79.9C146,79.9,146,79.9,146,79.9z M142.2,165.5c0-4.3,3.5-7.8,7.8-7.8
					c4.3,0,7.8,3.5,7.8,7.8c0,4.3-3.5,7.8-7.8,7.8h0C145.7,173.3,142.2,169.8,142.2,165.5z M159.9,216.1l-19.7,0l-22.3-60.6
					c3.2-4.2,13-17.6,18.9-30.5c5.1-11.2,8.1-22,9.8-29.7l0,56c-6.4,1.5-11.1,7.3-11.1,14.1c0,8,6.5,14.5,14.5,14.5c0,0,0,0,0,0
					c8,0,14.5-6.5,14.5-14.5c0-6.8-4.8-12.6-11.2-14.1l0-56c1.7,7.7,4.7,18.6,9.9,29.7c5.9,12.9,15.8,26.2,19,30.4L159.9,216.1z"/>
			</g>
		</g>
	</g>
</g>
</svg>
