<?xml version="1.0" encoding="utf-8"?>
<!-- Generator: Adobe Illustrator 22.1.0, SVG Export Plug-In . SVG Version: 6.00 Build 0)  -->
<svg version="1.1" id="Layer_1" xmlns="http://www.w3.org/2000/svg" xmlns:xlink="http://www.w3.org/1999/xlink" x="0px" y="0px"
	 viewBox="0 0 300 300" style="enable-background:new 0 0 300 300;" xml:space="preserve">
<style type="text/css">
	.st0{fill:#D1D3D4;}
	.st1{fill:#BCBEC0;}
	.st2{fill:#FFFFFF;}
	.st3{fill:#00B1B3;}
	.st4{fill:#5FC8D7;}
	.st5{fill:#EF4871;}
	.st6{fill:#F27581;}
	.st7{fill:#007A86;}
	.st8{fill:#333132;}
	.st9{fill:#F1F2F2;}
	.st10{fill:#007660;}
	.st11{fill:#00AD7C;}
	.st12{fill:#A13046;}
	.st13{fill:#60C3AC;}
	.st14{fill:#B57AB4;}
	.st15{fill:#85439A;}
	.st16{fill:#939598;}
	.st17{fill:#70346E;}
</style>
<g>
	<path class="st0" d="M238.5,86.8c0,0,0,84.8,0,88.6c0,3.8-6.2,15.6-19.3,15.6S92.3,190,82.7,190s-21.2-0.9-21.2-21.8s0-73.6,0-86.3
		s7.8-15.7,15.4-15.7s30.8-0.7,30.8-0.7l10.9-21.3h62.5l9.5,21.3c0,0,18.9,0.7,29.4,0.7S238.5,72.4,238.5,86.8z"/>
	<path class="st1" d="M219.9,66.2c-10.4,0-29.4-0.7-29.4-0.7l-9.5-21.3h-30.7v146.3c31.1,0.2,62.4,0.5,68.9,0.5
		c13,0,19.3-11.8,19.3-15.6s0-88.6,0-88.6C238.5,72.4,230.3,66.2,219.9,66.2z"/>
	<circle class="st2" cx="150.4" cy="132" r="23"/>
	<polygon class="st2" points="128.8,72.7 136.5,58.9 165.9,60.2 175.5,73.5 	"/>
	<g>
		<g>
			<path class="st3" d="M172.7,101.2c9.6,7.1,15.9,18.5,15.9,31.4c0,18.2-12.5,33.5-29.4,37.8h79.3v-69.2H172.7z"/>
			<g>
				<path class="st4" d="M110.3,132.6c0-12.9,6.3-24.3,15.9-31.4H61.5v69.2h78.2C122.8,166.1,110.3,150.8,110.3,132.6z"/>
			</g>
		</g>
	</g>
	<rect x="114.2" y="205.3" class="st5" width="70.4" height="51.1"/>
	<rect x="114.2" y="205.3" class="st6" width="35.8" height="51.1"/>
	<rect x="186.3" y="204" class="st5" width="26.5" height="53.5"/>
	<rect x="86.7" y="204" class="st6" width="26.5" height="53.5"/>
	<rect x="214.4" y="205.3" class="st5" width="22.7" height="51.1"/>
	<rect x="62.9" y="205.3" class="st6" width="22.7" height="51.1"/>
	<polygon class="st2" points="163.4,230.8 142,218.1 143,242.6 	"/>
	<path class="st3" d="M150,92.1c-21.6,0-39.2,17.5-39.2,39.2s17.5,39.2,39.2,39.2s39.2-17.5,39.2-39.2S171.6,92.1,150,92.1z
		 M150,153.5c-12.3,0-22.2-10-22.2-22.2c0-12.3,10-22.2,22.2-22.2c12.3,0,22.2,10,22.2,22.2C172.2,143.5,162.3,153.5,150,153.5z"/>
	<path class="st7" d="M150.4,92.1V109c12.1,0.2,21.9,10.1,21.9,22.2c0,12.2-9.8,22-21.9,22.2v16.9c21.5-0.2,38.8-17.6,38.8-39.2
		C189.2,109.7,171.8,92.3,150.4,92.1z"/>
	<g>
		<g>
			<path class="st8" d="M223.1,193.5H76.9c-10.6,0-19.2-8.6-19.2-19.2V81.9c0-10.6,8.6-19.2,19.2-19.2h28.4l10.5-21
				c0.7-1.3,2-2.1,3.4-2.1h61.5c1.5,0,2.8,0.8,3.5,2.1l10.5,21h28.4c10.6,0,19.2,8.6,19.2,19.2v92.3
				C242.3,184.9,233.7,193.5,223.1,193.5z M76.9,70.4c-6.4,0-11.5,5.2-11.5,11.5v92.3c0,6.4,5.2,11.5,11.5,11.5h146.2
				c6.4,0,11.5-5.2,11.5-11.5V81.9c0-6.4-5.2-11.5-11.5-11.5h-30.8c-1.5,0-2.8-0.8-3.5-2.1l-10.5-21h-56.8l-10.5,21
				c-0.7,1.3-2,2.1-3.5,2.1H76.9z"/>
			<path class="st8" d="M169.6,75.9L163,62.7h-26l-6.6,13.3l-6.9-3.4l7.7-15.4c0.6-1.3,2-2.1,3.4-2.1h30.8c1.5,0,2.8,0.8,3.4,2.1
				l7.7,15.4L169.6,75.9z"/>
			<path class="st8" d="M119.2,70.4h61.5c2.1,0,3.8,1.7,3.8,3.8v0c0,2.1-1.7,3.8-3.8,3.8h-61.5c-2.1,0-3.8-1.7-3.8-3.8v0
				C115.4,72.1,117.1,70.4,119.2,70.4z"/>
			<path class="st8" d="M150,174.2c-23.4,0-42.3-18.9-42.3-42.3s18.9-42.3,42.3-42.3s42.3,18.9,42.3,42.3
				C192.3,155.3,173.4,174.2,150,174.2z M150,97.3c-19.1,0-34.6,15.5-34.6,34.6s15.5,34.6,34.6,34.6s34.6-15.5,34.6-34.6
				C184.6,112.8,169.1,97.3,150,97.3z"/>
			<path class="st8" d="M150,158.9c-14.9,0-26.9-12.1-26.9-26.9c0-14.9,12.1-26.9,26.9-26.9c14.9,0,26.9,12.1,26.9,26.9
				C176.9,146.8,164.9,158.8,150,158.9z M150,112.7c-10.6,0-19.2,8.6-19.2,19.2s8.6,19.2,19.2,19.2c10.6,0,19.2-8.6,19.2-19.2
				C169.2,121.3,160.6,112.7,150,112.7z"/>
			<path class="st8" d="M80.8,81.9L80.8,81.9c2.1,0,3.8,1.7,3.8,3.8v0c0,2.1-1.7,3.8-3.8,3.8h0c-2.1,0-3.8-1.7-3.8-3.8v0
				C76.9,83.6,78.6,81.9,80.8,81.9z"/>
			<path class="st8" d="M96.1,81.9L96.1,81.9c2.1,0,3.8,1.7,3.8,3.8v0c0,2.1-1.7,3.8-3.8,3.8h0c-2.1,0-3.8-1.7-3.8-3.8v0
				C92.3,83.6,94,81.9,96.1,81.9z"/>
			<path class="st8" d="M80.8,97.3h15.4c2.1,0,3.8,1.7,3.8,3.8v0c0,2.1-1.7,3.8-3.8,3.8H80.8c-2.1,0-3.8-1.7-3.8-3.8v0
				C76.9,99,78.6,97.3,80.8,97.3z"/>
			<path class="st8" d="M61.5,166.5H100c2.1,0,3.8,1.7,3.8,3.8l0,0c0,2.1-1.7,3.8-3.8,3.8H61.5V166.5z"/>
			<path class="st8" d="M200,166.5h38.5v7.7H200c-2.1,0-3.8-1.7-3.8-3.8l0,0C196.2,168.3,197.9,166.5,200,166.5z"/>
			<path class="st8" d="M166.9,229.4c-0.2-0.4-0.6-0.8-1-1l-22.4-12.9c-0.6-0.4-1.3-0.4-2-0.3s-1.3,0.6-1.6,1.2
				c-0.2,0.4-0.3,0.9-0.3,1.3v25.8c0,0.7,0.3,1.4,0.8,1.9c0.5,0.5,1.2,0.8,1.9,0.8c0,0,0,0,0,0c0.6,0,1.1-0.2,1.6-0.5c0,0,0,0,0.1,0
				l22.1-12.7C167.2,232.3,167.7,230.7,166.9,229.4z M159.3,230.7l-14.4,8.3v-16.6L159.3,230.7z"/>
			<path class="st8" d="M239.3,204.2L239.3,204.2c-1.9-2-4.6-3.1-7.3-3.1H68.1c-2.8,0-5.4,1.1-7.3,3.1c-2,1.9-3,4.6-3.1,7.3v38.5
				c0,2.7,1,5.2,2.9,7.2l0.2,0.2c1.9,2,4.6,3,7.3,3.1h163.9c2.8,0,5.4-1.1,7.3-3.1c1.9-1.9,3-4.6,3.1-7.3v-38.5
				C242.3,208.8,241.2,206.2,239.3,204.2z M182.8,207.8v45.8h-65.5v-45.8H182.8z M68.1,253.6c-1,0-1.9-0.4-2.6-1.1l-0.1-0.1
				c-0.6-0.7-1-1.5-1-2.5v-38.5c0-1,0.4-1.9,1.1-2.6c0.7-0.7,1.6-1.1,2.6-1.1h16l0,45.8H68.1z M90.9,207.8h19.6v45.8H90.9V207.8z
				 M189.5,253.6v-45.8h19.6l0,45.8H189.5z M235.6,250c0,1-0.4,1.9-1.1,2.6c-0.7,0.7-1.6,1.1-2.6,1.1h-16v-45.8h16
				c1,0,1.9,0.4,2.6,1.1c0.7,0.7,1.1,1.6,1.1,2.6V250z"/>
			<rect x="196.8" y="86.4" class="st2" width="22" height="14.7"/>
			<path class="st8" d="M219.2,81.9h-15.4h-7.7c-2.1,0-3.8,1.7-3.8,3.8v7.7v7.7c0,2.1,1.7,3.8,3.8,3.8h15.4h7.7
				c2.1,0,3.8-1.7,3.8-3.8v-7.7v-7.7C223.1,83.6,221.4,81.9,219.2,81.9z M215.4,97.3h-3.8H200v-3.8v-3.8h3.8h11.5v3.8V97.3z"/>
		</g>
	</g>
</g>
</svg>
