<?xml version="1.0" encoding="utf-8"?>
<!-- Generator: Adobe Illustrator 22.1.0, SVG Export Plug-In . SVG Version: 6.00 Build 0)  -->
<svg version="1.1" id="Layer_1" xmlns="http://www.w3.org/2000/svg" xmlns:xlink="http://www.w3.org/1999/xlink" x="0px" y="0px"
	 viewBox="0 0 300 300" style="enable-background:new 0 0 300 300;" xml:space="preserve">
<style type="text/css">
	.st0{fill:#D1D3D4;}
	.st1{fill:#BCBEC0;}
	.st2{fill:#FFFFFF;}
	.st3{fill:#00B1B3;}
	.st4{fill:#5FC8D7;}
	.st5{fill:#EF4871;}
	.st6{fill:#F27581;}
	.st7{fill:#007A86;}
	.st8{fill:#333132;}
	.st9{fill:#F1F2F2;}
	.st10{fill:#007660;}
	.st11{fill:#00AD7C;}
	.st12{fill:#A13046;}
	.st13{fill:#60C3AC;}
	.st14{fill:#B57AB4;}
	.st15{fill:#85439A;}
	.st16{fill:#939598;}
	.st17{fill:#70346E;}
</style>
<g>
	<rect x="81.6" y="55.1" class="st0" width="164.1" height="15.6"/>
	<polygon class="st1" points="162.7,55.1 162.7,70.7 200.3,70.7 230.2,100.9 229.9,258.2 244.7,258.2 244.7,55.1 	"/>
	<polygon class="st9" points="199.9,100.9 200.1,70.7 149.1,70.7 149.1,268 230.1,268 230.1,99.7 	"/>
	<polygon class="st0" points="200.2,72.3 199.9,100.9 227.7,100.9 	"/>
	<polygon class="st7" points="247.3,131 258.5,140 250.1,149.6 239.4,141.4 	"/>
	<polygon class="st4" points="250,151.7 237.6,143.1 204.4,186 212.9,194.7 	"/>
	<path class="st3" d="M212.6,197.6c-0.3-0.2-10.2-8.7-10.2-8.7l-25.3,30.9l8,8.6L212.6,197.6z"/>
	<g>
		<path class="st8" d="M146.2,123.3c2,0,3.6-1.6,3.6-3.6c0-2-1.6-3.6-3.6-3.6H92.9c-2,0-3.6,1.6-3.6,3.6c0,2,1.6,3.6,3.6,3.6H146.2z
			"/>
		<path class="st8" d="M207.2,123.3c2,0,3.6-1.6,3.6-3.6c0-2-1.6-3.6-3.6-3.6h-45.7c-2,0-3.6,1.6-3.6,3.6c0,2,1.6,3.6,3.6,3.6H207.2
			z"/>
		<path class="st8" d="M92.9,142.3h110.3c2,0,3.6-1.6,3.6-3.6c0-2-1.6-3.6-3.6-3.6H92.9c-2,0-3.6,1.6-3.6,3.6
			C89.3,140.7,90.9,142.3,92.9,142.3z"/>
		<path class="st8" d="M92.9,161.4h19.1c2,0,3.6-1.6,3.6-3.6c0-2-1.6-3.6-3.6-3.6H92.9c-2,0-3.6,1.6-3.6,3.6
			C89.3,159.8,90.9,161.4,92.9,161.4z"/>
		<path class="st8" d="M196.5,157.8c0-2-1.6-3.6-3.6-3.6h-65.7c-2,0-3.6,1.6-3.6,3.6c0,2,1.6,3.6,3.6,3.6h65.7
			C194.9,161.4,196.5,159.8,196.5,157.8z"/>
		<path class="st8" d="M92.1,180.5h31.3c2,0,3.6-1.6,3.6-3.6c0-2-1.6-3.6-3.6-3.6H92.1c-2,0-3.6,1.6-3.6,3.6
			C88.5,178.9,90.1,180.5,92.1,180.5z"/>
		<path class="st8" d="M188.6,176.9c0-2-1.6-3.6-3.6-3.6h-46.5c-2,0-3.6,1.6-3.6,3.6c0,2,1.6,3.6,3.6,3.6h46.5
			C187,180.5,188.6,178.9,188.6,176.9z"/>
		<path class="st8" d="M176.3,195.9c0-2-1.6-3.6-3.6-3.6H92.9c-2,0-3.6,1.6-3.6,3.6c0,2,1.6,3.6,3.6,3.6h79.8
			C174.7,199.5,176.3,197.9,176.3,195.9z"/>
		<path class="st8" d="M160,211.4H92.9c-2,0-3.6,1.6-3.6,3.6c0,2,1.6,3.6,3.6,3.6H160c2,0,3.6-1.6,3.6-3.6
			C163.6,213,162,211.4,160,211.4z"/>
		<path class="st8" d="M160,230.5H92.9c-2,0-3.6,1.6-3.6,3.6c0,2,1.6,3.6,3.6,3.6H160c2,0,3.6-1.6,3.6-3.6
			C163.6,232.1,162,230.5,160,230.5z"/>
		<path class="st8" d="M261,136l-11.3-9c-0.3-0.2-0.6-0.4-0.9-0.5V54.9c0-2-1.6-3.6-3.6-3.6H142.1c-0.9-12.8-11.5-22.9-24.5-22.9
			c-13,0-23.6,10.1-24.5,22.9H81.9c-2,0-3.6,1.6-3.6,3.6v11.7H70c-2,0-3.6,1.6-3.6,3.6l0,145.4c0,1.9,1.3,3.6,3.2,3.8
			c2.1,0.2,3.9-1.5,3.9-3.6V73.7h19.5v16.9c0,8.8,6.5,16.5,15.3,17.3c10.1,0.9,18.5-7,18.5-16.8V73.7H196v26.9c0,2,1.6,3.6,3.6,3.6
			h26.9v16.4c0,2,1.6,3.6,3.6,3.6l0,0c2,0,3.6-1.6,3.6-3.6v-20c0,0,0-0.1,0-0.1c0-0.9-0.4-1.8-1-2.4l-30.5-30.5
			c-0.7-0.7-1.6-1-2.5-1h-72.7l0-0.7c0-1.9-1.3-3.6-3.2-3.8c-2.1-0.2-3.9,1.5-3.9,3.6v0.9h-19.5v-8.1h141.5v72.8l-3.8,4.8l-2.8-2.2
			l0,0c-3.1-2.5-7.6-1.9-10.1,1.1l-21.6,27.1c3.1,2.5,7.7,2,10.1-1.2l17.1-21.5l2.8,2.2l-59,74.2c-0.3,0.4-0.6,1-0.7,1.5l-3.3,15.8
			c-0.3,1.3,0.2,2.7,1.3,3.6c1.1,0.9,2.5,1,3.8,0.4l14.6-6.8c0.5-0.2,0.9-0.6,1.3-1l50.4-63.4v87.2h-8.1v-54.7c0-2-1.6-3.6-3.6-3.6
			l0,0c-2,0-3.6,1.6-3.6,3.6v66.1H73.6l0-31.8c0-1.9-1.3-3.6-3.2-3.8c-2.1-0.2-3.9,1.5-3.9,3.6v35.5c0,2,1.6,3.6,3.6,3.6h160.1
			c2,0,3.6-1.6,3.6-3.6v-7.9h11.7c2,0,3.6-1.6,3.6-3.6v-99.8l12.7-16C262.9,139.5,262.6,137.3,261,136z M93.1,66.6h-7.6v-8.1h7.6
			V66.6z M203.2,78.8l18.3,18.3h-18.3V78.8z M119.8,73.7v17.4c0,5.4-4.4,9.8-9.8,9.8c-5.4,0-9.8-4.4-9.8-9.8V73.7H119.8z
			 M100.3,51.4c0.8-8.8,8.3-15.7,17.3-15.7c9,0,16.5,6.9,17.3,15.7H100.3z M186.3,224.3L186.3,224.3c-0.6-0.9-1.4-1.9-2.5-2.7
			c-1-0.8-2.1-1.4-3.2-1.8l0,0l22.5-28.3l5.6,4.5L186.3,224.3z M213.3,190.3l-5.6-4.5l31.5-39.6l5.6,4.5L213.3,190.3z M249.2,145.1
			l-5.6-4.5l4.5-5.6l5.6,4.5L249.2,145.1z"/>
	</g>
	<path class="st5" d="M117.6,36c8.8,0,16,6.6,16.9,15.3h8c-0.9-13.1-11.8-23.3-24.9-23.3c-13.5,0-24.9,10.7-24.9,23.3l-0.1,39.3
		c0,9.1,6.9,16.9,15.7,17.7c0.6,0.1,1.1,0.1,1.7,0.1c9.6,0,17.3-7.8,17.3-17.3V65.6c0-2.1-1.6-4-3.6-4.2c-0.1,0-0.3,0-0.4,0
		c-2.2,0-4,1.8-4,4v25.7c0,5.2-4.2,9.4-9.4,9.4c-5.2,0-9.4-4.2-9.4-9.4c0,0,0.1-34.1,0.1-39.8C101.6,42.6,108.8,36,117.6,36z"/>
</g>
</svg>
