<?xml version="1.0" encoding="utf-8"?>
<!-- Generator: Adobe Illustrator 22.1.0, SVG Export Plug-In . SVG Version: 6.00 Build 0)  -->
<svg version="1.1" id="Layer_1" xmlns="http://www.w3.org/2000/svg" xmlns:xlink="http://www.w3.org/1999/xlink" x="0px" y="0px"
	 viewBox="0 0 300 300" style="enable-background:new 0 0 300 300;" xml:space="preserve">
<style type="text/css">
	.st0{fill:#D1D3D4;}
	.st1{fill:#BCBEC0;}
	.st2{fill:#FFFFFF;}
	.st3{fill:#00B1B3;}
	.st4{fill:#5FC8D7;}
	.st5{fill:#EF4871;}
	.st6{fill:#F27581;}
	.st7{fill:#007A86;}
	.st8{fill:#333132;}
	.st9{fill:#F1F2F2;}
	.st10{fill:#007660;}
	.st11{fill:#00AD7C;}
	.st12{fill:#A13046;}
	.st13{fill:#60C3AC;}
	.st14{fill:#B57AB4;}
	.st15{fill:#85439A;}
	.st16{fill:#939598;}
	.st17{fill:#70346E;}
</style>
<g>
	<path class="st11" d="M230.2,220.1h-9.2c-1.9,0-3.5-1.6-3.5-3.5V204h16.1v12.6C233.7,218.6,232.2,220.1,230.2,220.1z"/>
	<path class="st11" d="M230.2,105.8h-9.2c-1.9,0-3.5,1.6-3.5,3.5v12.6h16.1v-12.6C233.7,107.4,232.2,105.8,230.2,105.8z"/>
	<rect x="216.4" y="123.3" class="st11" width="18.1" height="80.7"/>
	<rect x="51.9" y="97.3" class="st11" width="31.6" height="124"/>
	<rect x="101.4" y="99.1" class="st4" width="97.4" height="122.4"/>
	<rect x="150.1" y="99.1" class="st3" width="48.6" height="122.4"/>
	<path class="st0" d="M110.2,254.6h79.5c5,0,9.1-4.1,9.1-9.1v-24.3h-97.6v24.3C101.1,250.6,105.2,254.6,110.2,254.6z"/>
	<path class="st0" d="M101.1,98.1c0,0,0-19.6,0-22.9s4.5-10.1,13.9-10.1s55.2,1.2,65.8,1.2s19.9,3.7,19.9,13.2s0,19.7,0,19.7
		L101.1,98.1z"/>
	<path class="st1" d="M180.9,66.3c-5,0-17.7-0.3-30.8-0.5v31.4h50.7c0-3.5,0-10.8,0-17.6C200.8,70,191.6,66.3,180.9,66.3z"/>
	<circle class="st2" cx="150.1" cy="66.3" r="19.6"/>
	<path class="st2" d="M169.7,66.3c0-10.8-8.8-19.6-19.6-19.6v39.3C160.9,85.9,169.7,77.1,169.7,66.3z"/>
	<path class="st1" d="M149.9,254.6h33.9c8.2,0,14.9-6.7,14.9-14.9v-18.5h-48.8V254.6z"/>
	<rect x="156.9" y="151.5" class="st2" width="26.4" height="18.7"/>
	<rect x="117.4" y="151.5" class="st2" width="26.4" height="18.7"/>
	<rect x="117.4" y="118.3" class="st2" width="65.9" height="18.7"/>
	<g>
		<path class="st8" d="M81.1,94.6H53.3c-2.7,0-4.8,2.2-4.8,4.8v119.5c0,2.7,2.2,4.8,4.8,4.8h27.9c2.7,0,4.8-2.2,4.8-4.8V99.4
			C86,96.8,83.8,94.6,81.1,94.6z M78.3,217.4H56.2c-0.7,0-1.3-0.6-1.3-1.3V102.3c0-0.7,0.6-1.3,1.3-1.3h22.1c0.7,0,1.3,0.6,1.3,1.3
			v4.7h-3.9c-1.6,0-2.8,1.3-2.8,2.8c0,1.6,1.3,2.8,2.8,2.8h3.9v6.6h-3.9c-1.6,0-2.8,1.3-2.8,2.8c0,1.6,1.3,2.8,2.8,2.8h3.9v6.6h-3.9
			c-1.6,0-2.8,1.3-2.8,2.8s1.3,2.8,2.8,2.8h3.9v6.6h-3.9c-1.6,0-2.8,1.3-2.8,2.8c0,1.6,1.3,2.8,2.8,2.8h3.9v6.7h-3.9
			c-1.6,0-2.8,1.3-2.8,2.8c0,1.6,1.3,2.8,2.8,2.8h3.9v6.6h-3.9c-1.6,0-2.8,1.3-2.8,2.8c0,1.6,1.3,2.8,2.8,2.8h3.9v6.7h-3.9
			c-1.6,0-2.8,1.3-2.8,2.8c0,1.6,1.3,2.8,2.8,2.8h3.9v6.6h-3.9c-1.6,0-2.8,1.3-2.8,2.8v0c0,1.6,1.3,2.8,2.8,2.8h3.9v6.6h-3.9
			c-1.6,0-2.8,1.3-2.8,2.8c0,1.6,1.3,2.8,2.8,2.8h3.9v4.8C79.6,216.8,79,217.4,78.3,217.4z"/>
		<path class="st8" d="M137.7,240.4h24.7c2,0,3.5-1.6,3.5-3.5s-1.6-3.5-3.5-3.5h-24.7c-2,0-3.5,1.6-3.5,3.5S135.8,240.4,137.7,240.4
			z"/>
		<path class="st8" d="M186.3,62.7h-5h-8.9c-1.7-10.8-11-19.1-22.3-19.1c-11.3,0-20.6,8.3-22.3,19.1h-13.9
			c-9.3,0-16.9,7.5-16.9,16.9v159.9c0,9.3,7.5,16.8,16.8,16.8h72.4c9.3,0,16.8-7.5,16.8-16.8V79.6C203.1,70.3,195.6,62.7,186.3,62.7
			z M150.1,50c9,0,16.2,7.3,16.2,16.2c0,9-7.3,16.2-16.2,16.2c-9,0-16.2-7.3-16.2-16.2C133.9,57.3,141.1,50,150.1,50z M196,239.5
			c0,5.4-4.4,9.8-9.8,9.8h-72.4c-5.4,0-9.7-4.4-9.7-9.7v-15H196V239.5z M196,217.4h-91.9V101.7H196V217.4z M196,94.6h-91.9v-15
			c0-5.4,4.4-9.8,9.8-9.8h13.9c1.7,10.8,11,19.1,22.3,19.1c11.3,0,20.6-8.3,22.3-19.1h8.9h5c5.4,0,9.8,4.4,9.8,9.8V94.6z"/>
		<path class="st8" d="M117.2,201.9h26.7c1.8,0,3.2-1.4,3.2-3.2l0,0c0-1.8-1.4-3.2-3.2-3.2h-26.7c-1.8,0-3.2,1.4-3.2,3.2l0,0
			C114,200.5,115.4,201.9,117.2,201.9z"/>
		<path class="st8" d="M117.2,187.7h26.7c1.8,0,3.2-1.4,3.2-3.2c0-1.8-1.4-3.2-3.2-3.2h-26.7c-1.8,0-3.2,1.4-3.2,3.2
			C114,186.3,115.4,187.7,117.2,187.7z"/>
		<path class="st8" d="M183,195.5h-26.7c-1.8,0-3.2,1.4-3.2,3.2l0,0c0,1.8,1.4,3.2,3.2,3.2H183c1.8,0,3.2-1.4,3.2-3.2l0,0
			C186.2,196.9,184.8,195.5,183,195.5z"/>
		<path class="st8" d="M183,181.4h-26.7c-1.8,0-3.2,1.4-3.2,3.2c0,1.8,1.4,3.2,3.2,3.2H183c1.8,0,3.2-1.4,3.2-3.2
			C186.2,182.8,184.8,181.4,183,181.4z"/>
		<path class="st8" d="M116.4,140.7h67.4c1.3,0,2.4-1.1,2.4-2.4V117c0-1.3-1.1-2.4-2.4-2.4h-67.4c-1.3,0-2.4,1.1-2.4,2.4v21.3
			C114,139.6,115.1,140.7,116.4,140.7z M120.4,121.6c0-0.4,0.3-0.7,0.7-0.7h58c0.4,0,0.7,0.3,0.7,0.7v12c0,0.4-0.3,0.7-0.7,0.7h-58
			c-0.4,0-0.7-0.3-0.7-0.7V121.6z"/>
		<path class="st8" d="M116.4,173.9h28.3c1.3,0,2.4-1.1,2.4-2.4v-21.3c0-1.3-1.1-2.4-2.4-2.4h-28.3c-1.3,0-2.4,1.1-2.4,2.4v21.3
			C114,172.8,115.1,173.9,116.4,173.9z M120.4,154.9c0-0.4,0.3-0.7,0.7-0.7H140c0.4,0,0.7,0.3,0.7,0.7v12c0,0.4-0.3,0.7-0.7,0.7
			h-18.9c-0.4,0-0.7-0.3-0.7-0.7V154.9z"/>
		<path class="st8" d="M183.8,147.8h-28.3c-1.3,0-2.4,1.1-2.4,2.4v21.3c0,1.3,1.1,2.4,2.4,2.4h28.3c1.3,0,2.4-1.1,2.4-2.4v-21.3
			C186.2,148.9,185.1,147.8,183.8,147.8z M179.8,166.8c0,0.4-0.3,0.7-0.7,0.7h-18.9c-0.4,0-0.7-0.3-0.7-0.7v-12
			c0-0.4,0.3-0.7,0.7-0.7h18.9c0.4,0,0.7,0.3,0.7,0.7V166.8z"/>
		<path class="st8" d="M146.5,74.5c0.9,0.9,2.3,0.9,3.2,0l9-9.1c1.2-1.2,1.2-3.3,0-4.5c-1.2-1.2-3.3-1.2-4.5,0l-5.9,6
			c-0.1,0.1-0.3,0.1-0.4,0l-2-2c-1.2-1.2-3.3-1.2-4.5,0l0,0c-1.2,1.2-1.2,3.3,0,4.5L146.5,74.5z"/>
		<path class="st8" d="M235.7,108.6l-6.6-6.6v-4.2c0-1.8-1.4-3.2-3.2-3.2c-1.8,0-3.2,1.4-3.2,3.2v4.2l-6.6,6.6
			c-1.2,1.2-1.9,2.9-1.9,4.6v99.6c0,6.5,5.2,11.7,11.7,11.7s11.7-5.2,11.7-11.7v-99.6C237.6,111.5,236.9,109.8,235.7,108.6z
			 M221,112.8l4.9-4.9l4.9,4.9c0.3,0.3,0.4,0.6,0.4,1v6.4h-10.6v-6.4C220.6,113.4,220.7,113,221,112.8z M231.2,126.5v73.9h-10.6
			v-73.9H231.2z M225.9,218.1c-2.9,0-5.3-2.4-5.3-5.3v-6h10.6v6C231.2,215.7,228.8,218.1,225.9,218.1z"/>
	</g>
</g>
</svg>
