<?xml version="1.0" encoding="utf-8"?>
<!-- Generator: Adobe Illustrator 22.1.0, SVG Export Plug-In . SVG Version: 6.00 Build 0)  -->
<svg version="1.1" id="Layer_1" xmlns="http://www.w3.org/2000/svg" xmlns:xlink="http://www.w3.org/1999/xlink" x="0px" y="0px"
	 viewBox="0 0 300 300" style="enable-background:new 0 0 300 300;" xml:space="preserve">
<style type="text/css">
	.st0{fill:#D1D3D4;}
	.st1{fill:#BCBEC0;}
	.st2{fill:#FFFFFF;}
	.st3{fill:#00B1B3;}
	.st4{fill:#5FC8D7;}
	.st5{fill:#EF4871;}
	.st6{fill:#F27581;}
	.st7{fill:#007A86;}
	.st8{fill:#333132;}
	.st9{fill:#F1F2F2;}
	.st10{fill:#007660;}
	.st11{fill:#00AD7C;}
	.st12{fill:#A13046;}
	.st13{fill:#60C3AC;}
	.st14{fill:#B57AB4;}
	.st15{fill:#85439A;}
	.st16{fill:#939598;}
	.st17{fill:#70346E;}
</style>
<g>
	
		<rect x="150.3" y="114.8" transform="matrix(-1 -1.224647e-16 1.224647e-16 -1 395.4983 290.1232)" class="st9" width="94.8" height="60.6"/>
	<path class="st4" d="M245.2,114.3H55.5V82.9c0-2.1,1.7-3.9,3.9-3.9h181.9c2.1,0,3.9,1.7,3.9,3.9V114.3z"/>
	<rect x="150.3" y="81.3" class="st3" width="94.8" height="30.8"/>
	<rect x="55.5" y="175.4" class="st4" width="189.6" height="26.3"/>
	<polygon class="st1" points="93.2,76.7 109.2,97.2 109.2,52.2 104.5,52.2 	"/>
	<polygon class="st16" points="125.1,76.7 109.2,97.2 109.2,52.2 113.8,52.2 	"/>
	<polygon class="st14" points="92.5,79.6 108.9,94.6 108.9,202.2 90,201 	"/>
	<polygon class="st17" points="125.6,79.6 109.2,94.6 109.2,202.2 128.1,201 	"/>
	<rect x="150" y="222.8" class="st16" width="29.1" height="29.1"/>
	
		<rect x="122.3" y="222.8" transform="matrix(-1 -1.224647e-16 1.224647e-16 -1 272.3157 474.7608)" class="st1" width="27.7" height="29.1"/>
	<path class="st0" d="M242.3,225.1h-184c-1.6,0-2.8-1.3-2.8-2.8v-20.1h189.6v20.1C245.2,223.9,243.9,225.1,242.3,225.1z"/>
	<path class="st1" d="M150.3,225.1h90.2c2.6,0,4.6-2.1,4.6-4.6v-18.3h-94.8V225.1z"/>
	<rect x="150.3" y="177" class="st3" width="94.8" height="22.9"/>
	<g>
		<g>
			<g>
				<g>
					<g>
						<path class="st8" d="M181.4,256.4h-62.8v-19.8c0-2,1.6-3.5,3.5-3.5h0c2,0,3.5,1.6,3.5,3.5v12.7h48.6v-12.7
							c0-2,1.6-3.5,3.5-3.5h0c2,0,3.5,1.6,3.5,3.5V256.4z"/>
						<path class="st8" d="M190.2,256.4h-80.3c-2,0-3.5-1.6-3.5-3.5v0c0-2,1.6-3.5,3.5-3.5h80.3c2,0,3.5,1.6,3.5,3.5v0
							C193.7,254.8,192.1,256.4,190.2,256.4z"/>
						<path class="st8" d="M248.2,205.9H51.8V86.3c0-2.7,1.1-5.3,3-7.2c1.9-1.9,4.5-3,7.2-3h29v7.1h-29c-0.8,0-1.6,0.3-2.2,0.9
							c-0.6,0.6-0.9,1.4-0.9,2.2v112.5h182.2V86.3c0-0.8-0.3-1.6-0.9-2.2c-0.6-0.6-1.4-0.9-2.2-0.9h-38.2V76H238
							c2.7,0,5.3,1.1,7.2,3c1.9,1.9,3,4.5,3,7.2V205.9z"/>
						<path class="st8" d="M237.9,228.1H62c-2.7,0-5.3-1.1-7.2-3c-1.9-1.9-3-4.5-3-7.2v-19.1h196.3v19.1c0,2.7-1.1,5.3-3,7.2
							C243.3,227,240.7,228.1,237.9,228.1z M58.9,205.9v12c0,0.8,0.3,1.6,0.9,2.2c0.6,0.6,1.4,0.9,2.2,0.9h175.9
							c0.8,0,1.6-0.3,2.2-0.9c0.6-0.6,0.9-1.4,0.9-2.2v-12H58.9z"/>
						<rect x="127.8" y="76" class="st8" width="74.7" height="7.1"/>
					</g>
					<g>
						<g>
							<g>
								<polygon class="st8" points="100.3,62.2 117.6,62.2 108.9,47.2 								"/>
								<rect x="105.4" y="94.6" class="st8" width="7.1" height="107.6"/>
								<path class="st8" d="M123.2,79l-14.3-24.7L94.7,79l-6.1-3.5l17.4-30.1c1.3-2.3,4.7-2.3,6,0l17.4,30.1L123.2,79z"/>
								<path class="st8" d="M129.8,202.2h-7.1l0-116.4l-11.3,11.3c-1.4,1.4-3.6,1.4-5,0L95.2,85.8l0,116.4h-7.1l0-124.9
									c0-1.4,0.9-2.7,2.2-3.3c1.3-0.5,2.9-0.2,3.9,0.8l14.8,14.8l14.8-14.8c1-1,2.5-1.3,3.9-0.8c1.3,0.5,2.2,1.8,2.2,3.3
									L129.8,202.2z"/>
							</g>
						</g>
					</g>
				</g>
			</g>
			<g>
				<path class="st8" d="M129.8,118.1h111.2V172H129.8V118.1z M158.4,178.7l86.1,0c1.9,0,3.4-1.5,3.4-3.4v-60.6
					c0-1.9-1.5-3.4-3.4-3.4h-118c-1.9,0-3.4,1.5-3.4,3.4v60.6c0,1.9,1.5,3.4,3.4,3.4h25.1L158.4,178.7z"/>
				<g>
					<path class="st8" d="M184.7,136.8c-0.9-1.2-2.6-1.5-3.8-0.5l-8.8,6.6c-1.2,0.9-1.5,2.6-0.5,3.8c0.2,0.2,0.3,0.4,0.5,0.5
						l8.8,6.6c1.2,0.9,2.9,0.7,3.8-0.5h0c0.9-1.2,0.7-2.9-0.5-3.8l-5.9-4.4l5.9-4.4C185.4,139.8,185.6,138,184.7,136.8L184.7,136.8z
						"/>
					<path class="st8" d="M206.7,136.8L206.7,136.8c-0.9,1.2-0.7,2.9,0.5,3.8l5.9,4.4l-5.9,4.4c-1.2,0.9-1.5,2.6-0.5,3.8h0
						c0.9,1.2,2.6,1.5,3.8,0.5l8.8-6.6c1.2-0.9,1.5-2.6,0.5-3.8c-0.2-0.2-0.3-0.4-0.5-0.5l-8.8-6.6
						C209.3,135.4,207.6,135.6,206.7,136.8z"/>
					<path class="st8" d="M188.6,155.2l8.9-22.4c0.6-1.4,2.2-2.1,3.6-1.5l0,0c1.4,0.6,2.1,2.2,1.5,3.6l-8.9,22.4
						c-0.6,1.4-2.2,2.1-3.6,1.5h0C188.8,158.2,188.1,156.6,188.6,155.2z"/>
				</g>
			</g>
			<rect x="55.5" y="111.4" class="st8" width="35.8" height="6.7"/>
			<rect x="55.5" y="172" class="st8" width="35.8" height="6.7"/>
		</g>
	</g>
</g>
</svg>
