<?xml version="1.0" encoding="utf-8"?>
<!-- Generator: Adobe Illustrator 22.1.0, SVG Export Plug-In . SVG Version: 6.00 Build 0)  -->
<svg version="1.1" id="Layer_1" xmlns="http://www.w3.org/2000/svg" xmlns:xlink="http://www.w3.org/1999/xlink" x="0px" y="0px"
	 viewBox="0 0 300 300" style="enable-background:new 0 0 300 300;" xml:space="preserve">
<style type="text/css">
	.st0{fill:#D1D3D4;}
	.st1{fill:#BCBEC0;}
	.st2{fill:#FFFFFF;}
	.st3{fill:#00B1B3;}
	.st4{fill:#5FC8D7;}
	.st5{fill:#EF4871;}
	.st6{fill:#F27581;}
	.st7{fill:#007A86;}
	.st8{fill:#333132;}
	.st9{fill:#F1F2F2;}
	.st10{fill:#007660;}
	.st11{fill:#00AD7C;}
	.st12{fill:#A13046;}
	.st13{fill:#60C3AC;}
	.st14{fill:#B57AB4;}
	.st15{fill:#85439A;}
	.st16{fill:#939598;}
	.st17{fill:#70346E;}
</style>
<g>
	<rect x="150.1" y="88.8" class="st9" width="49.7" height="122.4"/>
	<path class="st0" d="M111.3,244.8h79.5c5,0,9.1-4.1,9.1-9.1v-24.3h-97.6v24.3C102.2,240.7,106.3,244.8,111.3,244.8z"/>
	<polygon class="st3" points="123.1,102.7 114.2,102.7 109.3,112.6 102.2,116.5 91.6,113.7 85.2,116.5 82.1,121.3 85.6,131.3 
		82.1,140.5 71.1,145.5 71.1,154.3 82.6,159.7 86,170.3 82.6,180.7 88.5,187.5 100.6,182.9 109.3,187.5 114.5,198.2 123.8,198.2 
		129.4,186.3 138,182.3 148.3,186.8 156.3,179 152.1,166.7 156.3,158.2 165.9,154.4 165.9,145.7 155.2,140.6 152.1,130.2 
		155.9,118.7 147.8,112.4 137.9,116.5 132.7,113.7 128.7,111.9 	"/>
	<polygon class="st7" points="152.1,130.2 155.9,118.7 147.8,112.4 137.9,116.5 132.7,113.7 128.7,111.9 123.1,102.7 117.9,102.7 
		117.9,198.2 123.8,198.2 129.4,186.3 138,182.3 148.3,186.8 156.3,179 152.1,166.7 156.3,158.2 165.9,154.4 165.9,145.7 
		155.2,140.6 	"/>
	<circle class="st2" cx="117.9" cy="150" r="17.3"/>
	<path class="st0" d="M102.2,88.3c0,0,0-19.6,0-22.9c0-3.3,4.5-10.1,13.9-10.1s55.2,1.2,65.8,1.2s19.9,3.7,19.9,13.2s0,19.7,0,19.7
		L102.2,88.3z"/>
	<path class="st1" d="M182,56.4c-5,0-18.8-0.3-31.9-0.5v31.4h51.8c0-3.5,0-10.8,0-17.6C201.9,60.2,192.7,56.4,182,56.4z"/>
	<path class="st1" d="M150.1,244.8H185c8.2,0,14.9-6.7,14.9-14.9v-18.5h-49.7V244.8z"/>
	<g>
		<g>
			<g>
				<g>
					<g>
						<g>
							<path class="st8" d="M149.7,76.2h0.8c2,0,3.5-1.6,3.5-3.5v0c0-2-1.6-3.5-3.5-3.5h-0.8c-2,0-3.5,1.6-3.5,3.5v0
								C146.2,74.6,147.8,76.2,149.7,76.2z"/>
							<path class="st8" d="M137.8,230.9h24.7c2,0,3.5-1.6,3.5-3.5v0c0-2-1.6-3.5-3.5-3.5h-24.7c-2,0-3.5,1.6-3.5,3.5v0
								C134.2,229.3,135.8,230.9,137.8,230.9z"/>
							<path class="st8" d="M104.2,200.3V230c0,5.4,4.4,9.7,9.7,9.7h72.4c5.4,0,9.8-4.4,9.8-9.8V70.1c0-5.4-4.4-9.8-9.8-9.8h-72.4
								c-5.4,0-9.8,4.4-9.8,9.8v31.1c0,2-1.6,3.5-3.5,3.5l0,0c-2,0-3.5-1.6-3.5-3.5V70.1c0-9.3,7.5-16.9,16.9-16.9h72.4
								c9.3,0,16.9,7.5,16.9,16.9V230c0,9.3-7.5,16.8-16.8,16.8h-72.4c-9.3,0-16.8-7.5-16.8-16.8v-29.6c0-2,1.6-3.5,3.5-3.5l0,0
								C102.6,196.8,104.2,198.3,104.2,200.3z"/>
							<rect x="100.6" y="85.1" class="st8" width="99" height="7.1"/>
							<rect x="100.6" y="207.9" class="st8" width="99" height="7.1"/>
						</g>
					</g>
				</g>
			</g>
			<g>
				<path class="st8" d="M106.4,189.3c-2.4-0.7-4.7-1.7-6.9-2.9l-9,4c-1.6,0.7-3.4,0.4-4.6-0.8l-6.9-6.9c-1.2-1.2-1.5-3-0.8-4.6l4-9
					c-1.2-2.2-2.1-4.6-2.9-6.9l-9.2-3.5c-1.6-0.6-2.7-2.1-2.7-3.9l0-9.8c0-1.7,1.1-3.2,2.7-3.9l9.2-3.5c0.7-2.4,1.7-4.7,2.9-6.9
					l-4-8.9c-0.7-1.6-0.4-3.4,0.8-4.6l6.9-6.9c1.2-1.2,3-1.5,4.6-0.8l9,4c2.2-1.2,4.5-2.1,6.9-2.9l3.5-9.2c0.6-1.6,2.1-2.7,3.9-2.7
					h9.8c1.7,0,3.2,1.1,3.9,2.7l3.5,9.2c2.4,0.7,4.7,1.7,6.9,2.9l8.9-4c1.6-0.7,3.4-0.4,4.6,0.8l6.9,6.9c1.2,1.2,1.5,3,0.8,4.6
					l-4,8.9c1.2,2.2,2.1,4.5,2.9,6.9l9.2,3.5c1.6,0.6,2.7,2.1,2.7,3.9v9.8c0,1.7-1.1,3.2-2.7,3.9l-9.2,3.5c-0.7,2.4-1.7,4.7-2.9,6.9
					l4,8.9c0.7,1.6,0.4,3.4-0.8,4.6l-6.9,6.9c-1.2,1.2-3,1.5-4.6,0.8l-8.9-4c-2.2,1.2-4.5,2.1-6.9,2.9l-3.5,9.2
					c-0.6,1.6-2.1,2.7-3.9,2.7h-9.8c-1.7,0-3.2-1.1-3.9-2.7L106.4,189.3z M125.5,183.5l1.8-0.5c3-0.8,5.9-2,8.6-3.5l1.6-0.9l7.8,3.5
					c1.6,0.7,3.4,0.4,4.6-0.8h0c1.2-1.2,1.5-3,0.8-4.6l-3.5-7.8l0.9-1.6c1.6-2.7,2.8-5.5,3.6-8.5l0.5-1.8l7.9-3
					c1.6-0.6,2.7-2.1,2.7-3.9l0,0c0-1.7-1.1-3.2-2.7-3.9l-7.9-3l-0.5-1.8c-0.8-3-2-5.9-3.6-8.5l-0.9-1.6l3.5-7.8
					c0.7-1.6,0.4-3.4-0.8-4.6v0c-1.2-1.2-3-1.5-4.6-0.8l-7.8,3.5l-1.6-0.9c-2.7-1.6-5.6-2.8-8.6-3.6l-1.8-0.5l-3-7.9
					c-0.6-1.6-2.1-2.7-3.9-2.7h0c-1.7,0-3.2,1.1-3.9,2.7l-3,7.9L110,117c-3,0.8-5.9,2-8.6,3.6l-1.6,0.9L92,118
					c-1.6-0.7-3.4-0.4-4.6,0.8l0,0c-1.2,1.2-1.5,3-0.8,4.6l3.5,7.8l-0.9,1.6c-1.6,2.7-2.8,5.6-3.6,8.6l-0.5,1.8l-8,3
					c-1.6,0.6-2.7,2.1-2.7,3.9v0c0,1.7,1.1,3.2,2.7,3.9l8,3l0.5,1.8c0.8,3,2,5.8,3.6,8.5l0.9,1.6l-3.5,7.8c-0.7,1.6-0.4,3.4,0.8,4.6
					l0,0c1.2,1.2,3,1.5,4.6,0.8l7.8-3.5l1.6,0.9c2.7,1.6,5.5,2.7,8.5,3.5l1.8,0.5l3,7.9c0.6,1.6,2.1,2.7,3.9,2.7l0,0
					c1.7,0,3.2-1.1,3.9-2.7L125.5,183.5z"/>
				<path class="st8" d="M96.8,150c0-12,9.8-21.8,21.8-21.8c12,0,21.8,9.8,21.8,21.8c0,12-9.8,21.8-21.8,21.8
					C106.6,171.8,96.8,162,96.8,150z M103.9,150c0,8.1,6.6,14.7,14.7,14.7c8.1,0,14.7-6.6,14.7-14.7c0-8.1-6.6-14.7-14.7-14.7
					C110.5,135.3,103.9,141.9,103.9,150z"/>
			</g>
		</g>
	</g>
</g>
</svg>
