<?xml version="1.0" encoding="utf-8"?>
<!-- Generator: Adobe Illustrator 22.1.0, SVG Export Plug-In . SVG Version: 6.00 Build 0)  -->
<svg version="1.1" id="Layer_1" xmlns="http://www.w3.org/2000/svg" xmlns:xlink="http://www.w3.org/1999/xlink" x="0px" y="0px"
	 viewBox="0 0 300 300" style="enable-background:new 0 0 300 300;" xml:space="preserve">
<style type="text/css">
	.st0{fill:#D1D3D4;}
	.st1{fill:#BCBEC0;}
	.st2{fill:#FFFFFF;}
	.st3{fill:#00B1B3;}
	.st4{fill:#5FC8D7;}
	.st5{fill:#EF4871;}
	.st6{fill:#F27581;}
	.st7{fill:#007A86;}
	.st8{fill:#333132;}
	.st9{fill:#F1F2F2;}
	.st10{fill:#007660;}
	.st11{fill:#00AD7C;}
	.st12{fill:#A13046;}
	.st13{fill:#60C3AC;}
	.st14{fill:#B57AB4;}
	.st15{fill:#85439A;}
	.st16{fill:#939598;}
	.st17{fill:#70346E;}
</style>
<g>
	<polygon class="st0" points="148.7,172.6 131.5,188.5 121.2,180.6 99.2,200.6 77.9,180.5 65.5,194.1 64.3,243.1 148.7,243.1 	"/>
	<rect x="148.7" y="56.5" class="st3" width="83" height="23.5"/>
	
		<rect x="66.7" y="56.5" transform="matrix(-1 -1.224647e-16 1.224647e-16 -1 215.4765 136.5479)" class="st4" width="82" height="23.5"/>
	<polygon class="st1" points="232.4,243.1 148.7,243.1 148.7,171.9 158.2,163.7 172.4,176 185,163.7 191.4,169.3 220.4,146.5 
		232.4,158 	"/>
	<polygon class="st9" points="232.4,80 148.7,80 148.7,143.9 158.2,135.1 172.4,147.1 185,135.6 191.4,140.2 220.4,118.4 232.4,129 
			"/>
	<g>
		<g>
			<g>
				<g>
					<path class="st8" d="M231.4,246.9H66.1c-2.1,0-3.7-1.7-3.7-3.7v-48.3c0-1.1,0.5-2.2,1.3-3.1l14.2-14.2c0.8-0.8,2.1-0.8,2.9,0
						l17.9,17.9c0.3,0.3,0.9,0.3,1.3,0l18.8-18.8c0.8-0.8,2.1-0.8,2.8,0l8.1,8.1c0.3,0.3,0.9,0.3,1.3,0l25.9-25.9
						c0.8-0.8,2.1-0.8,2.8,0l11.6,11.6c0.3,0.3,0.9,0.3,1.3,0l10.9-10.9c0.8-0.8,2.1-0.8,2.9,0l4.5,4.5c0.3,0.3,0.8,0.3,1.2,0.1
						l26.8-22.4c0.8-0.7,2-0.6,2.7,0.1l12.5,12.5c0.8,0.8,1.3,1.9,1.3,3.1v85.6C235.2,245.2,233.5,246.9,231.4,246.9z M70.7,239.8
						h156.2c0.7,0,1.2-0.6,1.2-1.2v-79.2c0-0.5-0.2-0.9-0.5-1.2l-7.3-7.3c-0.3-0.3-0.8-0.3-1.2-0.1l-26.8,22.4
						c-0.8,0.7-2,0.6-2.7-0.1l-4.2-4.2c-0.3-0.3-0.9-0.3-1.3,0l-10.9,10.9c-0.8,0.8-2.1,0.8-2.9,0l-11.6-11.6
						c-0.3-0.3-0.9-0.3-1.3,0l-25.9,25.9c-0.8,0.8-2.1,0.8-2.8,0l-8.1-8.1c-0.3-0.3-0.9-0.3-1.3,0l-18.8,18.8
						c-0.8,0.8-2.1,0.8-2.8,0l-17.9-17.9c-0.3-0.3-0.9-0.3-1.3,0l-8.8,8.8c-0.3,0.3-0.4,0.6-0.4,1v42
						C69.4,239.2,70,239.8,70.7,239.8z"/>
					<g>
						<path class="st8" d="M178.7,110.2H84c-2,0-3.6-1.6-3.6-3.6v0c0-2,1.6-3.6,3.6-3.6h94.6c2,0,3.6,1.6,3.6,3.6v0
							C182.2,108.6,180.6,110.2,178.7,110.2z"/>
						<path class="st8" d="M140.9,125.5H84c-2,0-3.6-1.6-3.6-3.6v0c0-2,1.6-3.6,3.6-3.6h56.9c2,0,3.6,1.6,3.6,3.6v0
							C144.4,123.9,142.8,125.5,140.9,125.5z"/>
					</g>
					<path class="st8" d="M65.9,139.4L65.9,139.4c-2,0-3.6-1.6-3.6-3.6v-59h172.8v10.7c0,2-1.6,3.6-3.6,3.6h0c-2,0-3.6-1.6-3.6-3.6
						v-3.6H69.4v51.9C69.4,137.8,67.8,139.4,65.9,139.4z"/>
					<path class="st8" d="M235.2,83.9H62.3v-27c0-2.1,1.7-3.7,3.7-3.7h165.4c2.1,0,3.7,1.7,3.7,3.7V83.9z M69.4,76.8h158.6V61.5
						c0-0.7-0.6-1.2-1.2-1.2H70.7c-0.7,0-1.2,0.6-1.2,1.2V76.8z"/>
					<g>
						<path class="st8" d="M84,72.1L84,72.1c-2,0-3.6-1.6-3.6-3.6v0c0-2,1.6-3.6,3.6-3.6h0c2,0,3.6,1.6,3.6,3.6v0
							C87.6,70.5,86,72.1,84,72.1z"/>
						<path class="st8" d="M98.2,72.1L98.2,72.1c-2,0-3.6-1.6-3.6-3.6v0c0-2,1.6-3.6,3.6-3.6h0c2,0,3.6,1.6,3.6,3.6v0
							C101.8,70.5,100.2,72.1,98.2,72.1z"/>
						<path class="st8" d="M112.4,72.1L112.4,72.1c-2,0-3.6-1.6-3.6-3.6v0c0-2,1.6-3.6,3.6-3.6h0c2,0,3.6,1.6,3.6,3.6v0
							C116,70.5,114.4,72.1,112.4,72.1z"/>
					</g>
					<g>
						<path class="st8" d="M118.8,215.9h94.6c2,0,3.6,1.6,3.6,3.6l0,0c0,2-1.6,3.6-3.6,3.6h-94.6c-2,0-3.6-1.6-3.6-3.6l0,0
							C115.3,217.5,116.9,215.9,118.8,215.9z"/>
						<path class="st8" d="M156.6,200.6h56.9c2,0,3.6,1.6,3.6,3.6v0c0,2-1.6,3.6-3.6,3.6h-56.9c-2,0-3.6-1.6-3.6-3.6v0
							C153.1,202.2,154.6,200.6,156.6,200.6z"/>
					</g>
				</g>
			</g>
		</g>
	</g>
	<path class="st10" d="M260,102.6h-16.9c-2,0-3.6,1.6-3.6,3.6c0,2,1.6,3.6,3.6,3.6h7.6l-16.1,16.1c-0.3,0.3-0.8,0.3-1.1,0l-12-12
		c-0.7-0.7-1.9-0.8-2.8-0.1l-26.8,22.5c-0.3,0.3-0.8,0.2-1.1,0l-4.5-4.6c-0.8-0.8-2.1-0.8-2.9,0l-10.9,10.9c-0.3,0.3-0.8,0.3-1.1,0
		l-11.6-11.6c-0.8-0.8-2.1-0.8-2.9,0l-25.9,25.9c-0.3,0.3-0.8,0.3-1.1,0l-8.2-8.1c-0.8-0.8-2.1-0.8-2.9,0l-18.8,18.8
		c-0.3,0.3-0.8,0.3-1.1,0l-18-18c-0.8-0.8-2.1-0.8-2.9,0L38.2,189c-1.4,1.4-1.4,3.6,0,5c1.4,1.4,3.6,1.4,5,0l35.4-35.4
		c0.3-0.3,0.8-0.3,1.1,0l18,18c0.8,0.8,2.1,0.8,2.9,0l18.8-18.8c0.3-0.3,0.8-0.3,1.1,0l8.2,8.1c0.8,0.8,2.1,0.8,2.9,0l25.9-25.9
		c0.3-0.3,0.8-0.3,1.1,0l11.6,11.6c0.8,0.8,2.1,0.8,2.9,0l10.9-10.9c0.3-0.3,0.8-0.3,1.1,0l4.2,4.2c0.7,0.8,1.9,0.8,2.8,0.1
		l26.8-22.5c0.3-0.3,0.8-0.2,1.1,0l12.3,12.3c0.8,0.8,2.1,0.8,2.9,0l20.3-20.3v7.6c0,2,1.6,3.6,3.6,3.6h0c2,0,3.6-1.6,3.6-3.6v-16.9
		C262.8,103.9,261.5,102.6,260,102.6z"/>
	<path class="st11" d="M148.7,138.9l-18,18c-0.3,0.3-0.8,0.3-1.1,0l-8.2-8.1c-0.8-0.8-2.1-0.8-2.9,0l-18.8,18.8
		c-0.3,0.3-0.8,0.3-1.1,0l-18-18c-0.8-0.8-2.1-0.8-2.9,0L38.2,189c-1.4,1.4-1.4,3.6,0,5c1.4,1.4,3.6,1.4,5,0l35.4-35.4
		c0.3-0.3,0.8-0.3,1.1,0l18,18c0.8,0.8,2.1,0.8,2.9,0l18.8-18.8c0.3-0.3,0.8-0.3,1.1,0l8.2,8.1c0.8,0.8,2.1,0.8,2.9,0l17.1-17.1
		V138.9z"/>
</g>
</svg>
